<svg width="18" height="18" viewBox="0 0 18 18" fill="none" xmlns="http://www.w3.org/2000/svg">
<circle opacity="0.4" cx="9" cy="9" r="9" fill="#F2C94C" fill-opacity="0.22"/>
<g opacity="0.4">
<path d="M9 18C13.9632 18 18 13.9632 18 9C18 4.03676 13.9632 0 9 0C4.03676 0 0 4.03676 0 9C0 13.9632 4.03676 18 9 18ZM9 0.727941C13.5625 0.727941 17.2721 4.4375 17.2721 9C17.2721 13.5625 13.5625 17.2721 9 17.2721C4.4375 17.2721 0.727941 13.5625 0.727941 9C0.727941 4.4375 4.4375 0.727941 9 0.727941Z" fill="#F2C94C"/>
<path d="M7.72057 11.989C7.79043 12.0588 7.88602 12.0956 7.97793 12.0956C8.06984 12.0956 8.16543 12.0588 8.23528 11.989L10.9669 9.25736C11.0367 9.18751 11.0735 9.0956 11.0735 9.00001C11.0735 8.90442 11.0367 8.81251 10.9669 8.74266L8.23528 6.01104C8.0919 5.86766 7.86396 5.86766 7.72057 6.01104C7.57719 6.15442 7.57719 6.38236 7.72057 6.52575L10.1948 9.00001L7.72057 11.4743C7.58087 11.6177 7.58087 11.8493 7.72057 11.989Z" fill="#F2C94C"/>
</g>
</svg>
