<svg width="26" height="31" viewBox="0 0 26 31" fill="none" xmlns="http://www.w3.org/2000/svg">
<path d="M24.7161 16.8422C25.9866 15.8485 27.3043 12.6814 23.4111 11.7667C20.612 11.1147 18.7344 13.0981 17.4028 10.1828C16.1831 7.5108 19.9458 2.6637 15.8481 0.376503C14.3396 -0.467158 12.9519 0.0686355 13.0978 2.37358C13.3723 6.99321 10.5653 7.65401 8.48017 11.9741C6.48822 13.1319 4.86693 13.7677 2.86765 14.952L0 14.9819V28.4152H2.66415L4.72061 29.0127C7.87357 30.6564 11.7633 31 14.4708 31C16.1009 31 19.3885 30.8471 20.4589 29.9951C21.6726 29.029 22.0235 27.4794 22.131 26.8299C24.2466 25.9858 24.8109 24.2255 24.0357 22.3206C24.9503 21.8196 25.5185 21.1501 25.725 20.3309C26.1487 18.6632 25.0315 17.3857 24.7161 16.8422Z" fill="white"/>
</svg>
