<?xml version="1.0" encoding="UTF-8" standalone="no"?>
<!-- Creator: CorelDRAW 2017 -->

<svg
   xmlns:dc="http://purl.org/dc/elements/1.1/"
   xmlns:cc="http://creativecommons.org/ns#"
   xmlns:rdf="http://www.w3.org/1999/02/22-rdf-syntax-ns#"
   xmlns:svg="http://www.w3.org/2000/svg"
   xmlns="http://www.w3.org/2000/svg"
   xmlns:xlink="http://www.w3.org/1999/xlink"
   xmlns:sodipodi="http://sodipodi.sourceforge.net/DTD/sodipodi-0.dtd"
   xmlns:inkscape="http://www.inkscape.org/namespaces/inkscape"
   xml:space="preserve"
   width="179.99995mm"
   height="49.251801mm"
   version="1.1"
   style="clip-rule:evenodd;fill-rule:evenodd;image-rendering:optimizeQuality;shape-rendering:geometricPrecision;text-rendering:geometricPrecision"
   viewBox="0 0 17999.995 4925.1801"
   id="svg166"
   sodipodi:docname="logo-white.svg"
   inkscape:version="0.92.1 r15371"><metadata
     id="metadata170"><rdf:RDF><cc:Work
         rdf:about=""><dc:format>image/svg+xml</dc:format><dc:type
           rdf:resource="http://purl.org/dc/dcmitype/StillImage" /><dc:title></dc:title></cc:Work></rdf:RDF></metadata><sodipodi:namedview
     pagecolor="#ffffff"
     bordercolor="#666666"
     borderopacity="1"
     objecttolerance="10"
     gridtolerance="10"
     guidetolerance="10"
     inkscape:pageopacity="0"
     inkscape:pageshadow="2"
     inkscape:window-width="1300"
     inkscape:window-height="770"
     id="namedview168"
     showgrid="false"
     inkscape:zoom="0.5946522"
     inkscape:cx="286.91108"
     inkscape:cy="76.403912"
     inkscape:window-x="113"
     inkscape:window-y="121"
     inkscape:window-maximized="0"
     inkscape:current-layer="svg166" /><defs
     id="defs53"><style
       type="text/css"
       id="style2"><![CDATA[
    .fil31 {fill:black}
    .fil14 {fill:#4F4F4E}
    .fil16 {fill:#7690C9}
    .fil0 {fill:#7E8588}
    .fil4 {fill:#E3E3E3}
    .fil26 {fill:#F4F4F4}
    .fil25 {fill:#FEFEFE}
    .fil32 {fill:#2B2A29;fill-rule:nonzero}
    .fil19 {fill:url(#id0)}
    .fil24 {fill:url(#id1)}
    .fil20 {fill:url(#id2)}
    .fil29 {fill:url(#id3)}
    .fil1 {fill:url(#id4)}
    .fil15 {fill:url(#id5)}
    .fil17 {fill:url(#id6)}
    .fil11 {fill:url(#id7)}
    .fil8 {fill:url(#id8)}
    .fil6 {fill:url(#id9)}
    .fil2 {fill:url(#id10)}
    .fil18 {fill:url(#id11)}
    .fil28 {fill:url(#id12)}
    .fil27 {fill:url(#id13)}
    .fil30 {fill:url(#id14)}
    .fil23 {fill:url(#id15)}
    .fil21 {fill:url(#id16)}
    .fil13 {fill:url(#id17)}
    .fil22 {fill:url(#id18)}
    .fil3 {fill:url(#id19)}
    .fil7 {fill:url(#id20)}
    .fil10 {fill:url(#id21)}
    .fil5 {fill:url(#id22)}
    .fil9 {fill:url(#id23)}
    .fil12 {fill:url(#id24)}
   ]]></style><linearGradient
       id="id0"
       gradientUnits="userSpaceOnUse"
       x1="3495.52"
       y1="13858.21"
       x2="3495.52"
       y2="12387.41"><stop
         offset="0"
         style="stop-opacity:1; stop-color:#B8C0C3"
         id="stop4" /><stop
         offset="1"
         style="stop-opacity:1; stop-color:#E2E1E2"
         id="stop6" /></linearGradient><linearGradient
       id="id1"
       gradientUnits="userSpaceOnUse"
       x1="3040.8301"
       y1="14631.94"
       x2="3122.71"
       y2="14631.94"><stop
         offset="0"
         style="stop-opacity:1; stop-color:#7E8588"
         id="stop9" /><stop
         offset="1"
         style="stop-opacity:1; stop-color:#FEFEFE"
         id="stop11" /></linearGradient><linearGradient
       id="id2"
       gradientUnits="userSpaceOnUse"
       xlink:href="#id0"
       x1="3495.53"
       y1="15181.25"
       x2="3495.53"
       y2="13020.83" /><linearGradient
       id="id3"
       gradientUnits="userSpaceOnUse"
       xlink:href="#id1"
       x1="3285.8601"
       y1="14631.94"
       x2="3367.74"
       y2="14631.94" /><linearGradient
       id="id4"
       gradientUnits="userSpaceOnUse"
       x1="5321.5498"
       y1="14997.04"
       x2="5943.46"
       y2="14997.04"><stop
         offset="0"
         style="stop-opacity:1; stop-color:#7E8588"
         id="stop16" /><stop
         offset="0.239216"
         style="stop-opacity:1; stop-color:#83898B"
         id="stop18" /><stop
         offset="0.521569"
         style="stop-opacity:1; stop-color:#DFDEDF"
         id="stop20" /><stop
         offset="1"
         style="stop-opacity:1; stop-color:#F0F0F0"
         id="stop22" /></linearGradient><linearGradient
       id="id5"
       gradientUnits="userSpaceOnUse"
       xlink:href="#id0"
       x1="4132.2998"
       y1="17073.74"
       x2="4132.2998"
       y2="16891.039" /><linearGradient
       id="id6"
       gradientUnits="userSpaceOnUse"
       x1="3515.6201"
       y1="16758.189"
       x2="3515.6201"
       y2="14887.22"><stop
         offset="0"
         style="stop-opacity:1; stop-color:#2E367A"
         id="stop26" /><stop
         offset="1"
         style="stop-opacity:1; stop-color:#8888BC"
         id="stop28" /></linearGradient><linearGradient
       id="id7"
       gradientUnits="userSpaceOnUse"
       x1="4788.7202"
       y1="15395.59"
       x2="4788.7202"
       y2="14926.68"><stop
         offset="0"
         style="stop-opacity:1; stop-color:#B8C0C3"
         id="stop31" /><stop
         offset="1"
         style="stop-opacity:1; stop-color:#FEFEFE"
         id="stop33" /></linearGradient><linearGradient
       id="id8"
       gradientUnits="userSpaceOnUse"
       xlink:href="#id7"
       x1="2203.8701"
       y1="14282.43"
       x2="2203.8701"
       y2="15120.76" /><linearGradient
       id="id9"
       gradientUnits="userSpaceOnUse"
       xlink:href="#id4"
       x1="5054.04"
       y1="16575.369"
       x2="6210.96"
       y2="16575.369" /><linearGradient
       id="id10"
       gradientUnits="userSpaceOnUse"
       xlink:href="#id4"
       x1="5054.04"
       y1="13418.69"
       x2="6210.96"
       y2="13418.69" /><linearGradient
       id="id11"
       gradientUnits="userSpaceOnUse"
       xlink:href="#id6"
       x1="3266.51"
       y1="15880.62"
       x2="3266.51"
       y2="15516.91" /><linearGradient
       id="id12"
       gradientUnits="userSpaceOnUse"
       xlink:href="#id1"
       x1="3408.3799"
       y1="14631.94"
       x2="3490.26"
       y2="14631.94" /><linearGradient
       id="id13"
       gradientUnits="userSpaceOnUse"
       xlink:href="#id1"
       x1="3530.8999"
       y1="14631.94"
       x2="3612.8"
       y2="14631.94" /><linearGradient
       id="id14"
       gradientUnits="userSpaceOnUse"
       xlink:href="#id1"
       x1="3163.3401"
       y1="14631.94"
       x2="3245.23"
       y2="14631.94" /><linearGradient
       id="id15"
       gradientUnits="userSpaceOnUse"
       xlink:href="#id1"
       x1="3898.47"
       y1="14631.94"
       x2="3980.3501"
       y2="14631.94" /><linearGradient
       id="id16"
       gradientUnits="userSpaceOnUse"
       xlink:href="#id1"
       x1="3653.4199"
       y1="14631.94"
       x2="3735.3101"
       y2="14631.94" /><linearGradient
       id="id17"
       gradientUnits="userSpaceOnUse"
       xlink:href="#id0"
       x1="2911.8601"
       y1="17073.74"
       x2="2911.8601"
       y2="16891.039" /><linearGradient
       id="id18"
       gradientUnits="userSpaceOnUse"
       xlink:href="#id1"
       x1="3775.9299"
       y1="14631.94"
       x2="3857.8301"
       y2="14631.94" /><linearGradient
       id="id19"
       gradientUnits="userSpaceOnUse"
       xlink:href="#id4"
       x1="5107.5601"
       y1="13098.85"
       x2="6157.4502"
       y2="13098.85" /><linearGradient
       id="id20"
       gradientUnits="userSpaceOnUse"
       xlink:href="#id4"
       x1="5107.5601"
       y1="16866.85"
       x2="6157.4502"
       y2="16866.85" /><linearGradient
       id="id21"
       gradientUnits="userSpaceOnUse"
       xlink:href="#id7"
       x1="1576.11"
       y1="15110.45"
       x2="1576.11"
       y2="14625.5" /><linearGradient
       id="id22"
       gradientUnits="userSpaceOnUse"
       xlink:href="#id4"
       x1="5321.5601"
       y1="15040.58"
       x2="5943.46"
       y2="15040.58" /><linearGradient
       id="id23"
       gradientUnits="userSpaceOnUse"
       xlink:href="#id7"
       x1="1803.23"
       y1="14640.13"
       x2="1803.23"
       y2="14282.43" /><linearGradient
       id="id24"
       gradientUnits="userSpaceOnUse"
       xlink:href="#id7"
       x1="4789.5498"
       y1="14954.96"
       x2="4789.5498"
       y2="15392.64" /><linearGradient
       inkscape:collect="always"
       xlink:href="#id4"
       id="linearGradient3848"
       gradientUnits="userSpaceOnUse"
       x1="5321.5498"
       y1="14997.04"
       x2="5943.46"
       y2="14997.04" /><linearGradient
       inkscape:collect="always"
       xlink:href="#id7"
       id="linearGradient3850"
       gradientUnits="userSpaceOnUse"
       x1="4788.7202"
       y1="15395.59"
       x2="4788.7202"
       y2="14926.68" /><linearGradient
       inkscape:collect="always"
       xlink:href="#id6"
       id="linearGradient3852"
       gradientUnits="userSpaceOnUse"
       x1="3515.6201"
       y1="16758.189"
       x2="3515.6201"
       y2="14887.22" /><linearGradient
       inkscape:collect="always"
       xlink:href="#id0"
       id="linearGradient3854"
       gradientUnits="userSpaceOnUse"
       x1="3495.52"
       y1="13858.21"
       x2="3495.52"
       y2="12387.41" /><linearGradient
       inkscape:collect="always"
       xlink:href="#id1"
       id="linearGradient3856"
       gradientUnits="userSpaceOnUse"
       x1="3040.8301"
       y1="14631.94"
       x2="3122.71"
       y2="14631.94" /></defs><g
     id="g160"
     transform="translate(-1500.0042,-12387.41)"><path
       class="fil0"
       d="m 5967.25,16196.51 v 90.82 l 267.5,254.94 v 348.46 c 0,39.71 -39.43,63.52 -75.76,63.52 h -37.74 c -52.91,0 -113.04,-33.69 -113.5,-92.17 l -1.36,-174.65 c -19.53,-173.06 -221.29,-254.95 -373.83,-255.65 -152.66,0.7 -354.42,82.59 -373.95,255.65 l -1.36,174.65 c -0.46,58.48 -60.59,92.17 -113.5,92.17 h -37.74 c -36.33,0 -75.76,-23.81 -75.76,-63.52 v -348.46 l 267.51,-254.94 v -2580.58 l -267.51,-254.94 v -348.46 c 0,-39.71 39.43,-63.52 75.76,-63.52 h 37.74 c 52.91,0 113.04,33.7 113.5,92.17 l 1.36,174.66 c 19.53,173.06 221.29,254.94 373.83,255.64 152.66,-0.7 354.42,-82.58 373.95,-255.64 l 1.36,-174.66 c 0.46,-58.47 60.59,-92.17 113.5,-92.17 h 37.74 c 36.33,0 75.76,23.81 75.76,63.52 v 348.46 l -267.5,254.94 z m -33.44,-3377 v 445.23 c 0,372.75 -632.71,372.78 -632.71,0 v -445.23 h -217.33 v -138.01 h 1097.47 v 138.01 z m -632.71,4355.06 v -445.23 c 0,-372.78 632.71,-372.75 632.71,0 v 445.23 h 247.43 v 138.02 H 5083.77 v -138.02 z"
       id="path56"
       inkscape:connector-curvature="0"
       style="fill:#7e8588" /><g
       id="g84"><polygon
         class="fil1"
         points="5943.46,16172.73 5321.55,16172.73 5321.55,13821.36 5943.46,13821.36 "
         id="polygon58"
         style="fill:url(#linearGradient3848)" /><polygon
         class="fil0"
         points="5943.46,15214.75 5321.55,15214.75 5321.55,14849.66 5943.46,14849.66 "
         id="polygon60"
         style="fill:#7e8588" /><path
         class="fil2"
         d="m 5106.01,13063.62 h 37.74 c 49.34,0 89.42,30.9 89.71,68.57 l 1.37,175.87 c 16.94,156.93 188.34,277.07 397.67,278.03 209.33,-0.96 380.73,-121.1 397.67,-278.03 l 1.37,-175.87 c 0.3,-37.67 40.37,-68.57 89.71,-68.57 h 37.74 c 28.59,0 51.97,17.88 51.97,39.73 v 338.27 l -267.5,254.94 v 77.22 H 5632.5 5321.54 v -77.22 l -267.5,-254.94 v -338.27 c 0,-21.85 23.39,-39.73 51.97,-39.73 z"
         id="path62"
         inkscape:connector-curvature="0"
         style="fill:url(#id10)" /><g
         id="g70"><path
           class="fil3"
           d="m 5107.56,12705.29 h 217.33 585.13 247.43 v 90.43 h -247.43 v 469.02 c 0,341.39 -585.13,341.43 -585.13,0 v -469.02 h -217.33 z"
           id="path64"
           inkscape:connector-curvature="0"
           style="fill:url(#id19)" /><circle
           class="fil0"
           cx="5617.4502"
           cy="13258.26"
           r="179.39"
           id="circle66"
           style="fill:#7e8588" /><circle
           class="fil4"
           cx="5617.4502"
           cy="13258.26"
           r="152.14"
           id="circle68"
           style="fill:#e3e3e3" /></g><path
         class="fil5"
         d="m 5321.54,15177.92 h 621.92 v -97.14 h -621.92 z m 197.28,-120.58 h 424.64 v -154.09 h -424.64 z"
         id="path72"
         inkscape:connector-curvature="0"
         style="fill:url(#id22)" /><path
         class="fil6"
         d="m 5106.01,16930.46 h 37.74 c 49.34,0 89.42,-30.9 89.71,-68.57 l 1.37,-175.87 c 16.94,-156.93 188.34,-277.06 397.67,-278.03 209.33,0.97 380.73,121.1 397.67,278.03 l 1.37,175.87 c 0.3,37.67 40.37,68.57 89.71,68.57 h 37.74 c 28.59,0 51.97,-17.87 51.97,-39.73 v -338.26 l -267.5,-254.95 v -77.22 H 5632.5 5321.54 v 77.22 l -267.5,254.95 v 338.26 c 0,21.86 23.39,39.73 51.97,39.73 z"
         id="path74"
         inkscape:connector-curvature="0"
         style="fill:url(#id9)" /><g
         id="g82"><path
           class="fil7"
           d="m 5107.56,17288.8 h 217.33 585.13 247.43 v -90.44 h -247.43 v -469.02 c 0,-341.39 -585.13,-341.43 -585.13,0 v 469.02 h -217.33 z"
           id="path76"
           inkscape:connector-curvature="0"
           style="fill:url(#id20)" /><circle
           class="fil0"
           cx="5617.4502"
           cy="16735.83"
           r="179.39"
           id="circle78"
           style="fill:#7e8588" /><circle
           class="fil4"
           cx="5617.4502"
           cy="16735.83"
           r="152.14"
           id="circle80"
           style="fill:#e3e3e3" /></g></g><path
       class="fil0"
       d="m 1533.84,14762.96 c -21.08,9.43 -28.18,44.58 -19.87,69.98 8.3,25.38 27.21,42.74 45.89,57.61 -17.77,16.61 -26.93,46.01 -22.7,72.72 4.18,26.56 21.63,49.15 42.98,55.68 -42.47,27.46 -16.48,94.32 17.37,110.07 58.61,27.4 124.87,23.64 186.82,23.31 58.5,-0.31 126.68,17.12 183.03,-6.77 18.74,-8.1 38.49,-23.68 58.51,-29 9.87,-2.69 19.96,-2.92 29.84,1.55 0,0 817.91,-17.24 851.35,-20.58 33.43,-3.34 63.53,-63.65 63.53,-63.65 0,0 -866,-267.96 -902.91,-270.5 h -0.01 c -1.56,-1.66 -3.8,-2.73 -7.98,-6.46 -7.34,-6.53 -14.78,-12.94 -22.06,-19.58 -5.5,-5.17 -10.86,-10.44 -15.98,-16.37 -24.48,-28.72 -43.97,-65.11 -61,-101.01 -18.02,-36.18 -36.23,-72.52 -48.86,-112.14 -12.6,-39.61 -19.61,-82.95 -14.41,-125.25 2.46,-18.88 7.3,-37.82 6.01,-56.88 -0.79,-14.09 -6.22,-28.77 -15.25,-36.73 -2.71,-2.32 -5.39,-3.95 -8.21,-5.04 -30.34,-11.68 -66.08,48.24 -79.2,74.64 -21.09,43.2 -30.53,95.6 -23.31,145.16 2.81,19.86 7.98,39.01 10.38,58.96 1.98,19.9 1.05,41.52 -7.95,58.61 -6.44,12.85 -15.88,19.28 -26.43,22.35 -16.69,4.87 -36.27,1.21 -52.36,0.77 -23.43,-0.75 -46.84,-1.53 -70.33,-2.3 -16.35,-0.46 -32.76,-0.87 -49.14,-1.4 -20.01,-0.66 -41.56,-0.73 -58.45,12.72 -15.73,12.64 -24.98,36.7 -22.82,59.44 2.27,22.7 15.89,43.14 33.52,50.09 z"
       id="path86"
       inkscape:connector-curvature="0"
       style="fill:#7e8588" /><path
       class="fil8"
       d="m 1532.39,14742.43 c -20.18,9.03 -26.97,42.68 -19.01,66.99 7.94,24.29 26.04,40.91 43.92,55.14 -17.01,15.91 -25.77,44.04 -21.73,69.62 4.01,25.43 20.71,47.05 41.15,53.3 -40.66,26.28 -15.78,90.28 16.62,105.36 56.11,26.24 119.54,22.64 178.84,22.32 56,-0.3 121.27,16.38 175.21,-6.48 17.94,-7.76 36.85,-22.67 56.01,-27.76 9.45,-2.57 19.11,-2.8 28.57,1.48 0,0 782.95,-16.5 814.96,-19.7 32.01,-3.2 60.82,-60.93 60.82,-60.93 0,0 -828.99,-256.51 -864.33,-258.94 h -0.01 c -1.49,-1.59 -3.63,-2.61 -7.64,-6.19 -7.02,-6.25 -14.14,-12.38 -21.11,-18.74 -5.27,-4.95 -10.4,-10 -15.3,-15.67 -23.44,-27.5 -42.09,-62.33 -58.39,-96.69 -17.25,-34.64 -34.69,-69.43 -46.78,-107.36 -12.06,-37.91 -18.77,-79.39 -13.79,-119.88 2.36,-18.09 6.99,-36.21 5.75,-54.46 -0.75,-13.49 -5.95,-27.54 -14.6,-35.16 -2.59,-2.22 -5.15,-3.78 -7.85,-4.83 -29.05,-11.18 -63.26,46.19 -75.82,71.46 -20.18,41.35 -29.23,91.51 -22.31,138.96 2.68,19 7.64,37.33 9.94,56.43 1.89,19.05 1,39.75 -7.62,56.11 -6.16,12.3 -15.2,18.46 -25.3,21.4 -15.98,4.66 -34.72,1.15 -50.13,0.73 -22.42,-0.72 -44.82,-1.46 -67.31,-2.2 -15.66,-0.44 -31.36,-0.83 -47.04,-1.34 -19.17,-0.63 -39.79,-0.7 -55.96,12.18 -15.06,12.09 -23.91,35.13 -21.85,56.9 2.18,21.72 15.22,41.3 32.09,47.95 z"
       id="path88"
       inkscape:connector-curvature="0"
       style="fill:url(#id8)" /><path
       class="fil9"
       d="m 1879.53,14299.24 c -2.19,-4.14 -4.83,-7.79 -7.97,-10.55 -2.61,-2.21 -5.15,-3.78 -7.87,-4.83 -29.05,-11.17 -63.25,46.17 -75.79,71.45 -20.21,41.35 -29.25,91.5 -22.34,138.97 2.68,19 7.65,37.33 9.95,56.42 1.89,19.05 0.99,39.74 -7.61,56.11 -6.17,12.31 -15.21,18.46 -25.32,21.39 -3.13,0.91 -6.38,1.54 -9.67,1.91 -1.96,0.64 -3.95,1.16 -6,1.66 2.86,1.91 5.79,3.5 9.08,5.01 4.04,1.8 17.63,3.03 34.42,3.26 39.14,0.8 96.64,-3.21 97.9,-13.97 1.08,-9.08 -5.09,-17.5 -10.34,-25.47 -50.32,-77.01 -40.17,-196.33 1.44,-274.82 5.07,-9.7 13.21,-17.82 20.12,-26.54 z"
       id="path90"
       inkscape:connector-curvature="0"
       style="fill:url(#id23)" /><path
       class="fil10"
       d="m 1532.4,14742.43 c -20.2,9.03 -26.97,42.68 -19.02,66.98 7.93,24.31 26.05,40.92 43.9,55.13 -16.98,15.93 -25.76,44.07 -21.71,69.63 4.01,25.44 20.71,47.09 41.15,53.3 -40.65,26.3 -15.79,90.3 16.61,105.37 18.94,8.85 38.69,14.28 58.85,17.61 -6.94,-7.42 -13.14,-15.39 -18.32,-24.21 -16.39,-27.55 -20.2,-65.24 -0.77,-90.57 -35.21,-21.8 -41.1,-79.34 -11.11,-107.91 -34.16,-20.94 -110.14,-115.48 -31.04,-149.66 -33.67,-14.03 -54.65,-66.46 -22.39,-92.15 10.96,-8.6 12.25,-11.32 34.17,-19.78 l -21.45,-0.65 -25.26,0.1 c -12.06,0.98 -23.81,3.96 -33.83,11.96 -15.1,12.09 -23.93,35.13 -21.88,56.9 2.18,21.71 15.22,41.3 32.1,47.95 z"
       id="path92"
       inkscape:connector-curvature="0"
       style="fill:url(#id21)" /><path
       class="fil11"
       d="m 4160.91,14926.7 790.76,187.58 c 0,0 107.01,-37.7 207.31,-54.43 51.67,-8.62 248.46,-38.83 256.96,50.84 3.11,32.67 -4.34,58.45 -61.36,63.87 -70.21,6.67 -56.84,10.05 -56.84,10.05 v 211.01 c 0,0 -257.45,-13.37 -304.27,-100.47 -46.82,-87.09 -46.82,-87.09 -46.82,-87.09 l -785.74,13.4 z"
       id="path94"
       inkscape:connector-curvature="0"
       style="fill:url(#linearGradient3850)" /><path
       class="fil12"
       d="m 5410.5,15172.5 c -4.65,0.86 -9.69,1.55 -15.2,2.06 -13.43,1.23 -96.04,22.11 -96.04,30.14 v 187.94 c -75,-7.29 -240.25,-30.69 -277.39,-97.49 -48.41,-87.09 -48.41,-87.09 -48.41,-87.09 l -812.55,13.41 v -266.5 l 791.81,181.63 c 0,0 107.15,-36.5 207.57,-52.7 51.75,-8.34 248.8,-37.59 257.31,49.24 1.49,15.13 0.53,28.72 -7.1,39.36 z"
       id="path96"
       inkscape:connector-curvature="0"
       style="fill:url(#id24)" /><path
       class="fil13"
       d="m 3117.1,16891.06 h -150.58 c -54.29,0 -135.06,70.59 -184.48,91.34 l -92.29,38.76 c -21.72,9.12 -12.12,52.58 33.43,52.58 h 370.51 c 60.72,0 50.79,0.76 50.79,-54.97 v -100.62 c 0,-23.1 -1.67,-27.09 -27.38,-27.09 z"
       id="path98"
       inkscape:connector-curvature="0"
       style="fill:url(#id17)" /><polygon
       class="fil14"
       points="3109.59,16891.05 2959.78,16891.05 2959.78,16805.79 3109.59,16805.79 "
       id="polygon100"
       style="fill:#4f4f4e" /><path
       class="fil15"
       d="m 3927.06,16891.06 h 150.57 c 54.29,0 135.06,70.59 184.48,91.34 l 92.3,38.76 c 21.72,9.12 12.12,52.58 -33.44,52.58 h -370.5 c -60.73,0 -50.8,0.76 -50.8,-54.97 v -100.62 c 0,-23.1 1.67,-27.09 27.39,-27.09 z"
       id="path102"
       inkscape:connector-curvature="0"
       style="fill:url(#id5)" /><polygon
       class="fil14"
       points="3934.57,16891.05 4084.36,16891.05 4084.36,16805.79 3934.57,16805.79 "
       id="polygon104"
       style="fill:#4f4f4e" /><polygon
       class="fil16"
       points="4247.86,14839.64 4247.86,16805.78 3849.93,16805.78 3538.97,16464.14 3495.53,16464.14 3452.09,16464.14 3141.14,16805.78 2783.37,16805.78 2783.37,14839.64 3010.71,14839.64 3010.71,15261.66 3495.53,15261.66 4040.56,15261.66 4040.56,14839.64 "
       id="polygon106"
       style="fill:#7690c9" /><polygon
       class="fil17"
       points="4200.28,16758.2 4200.28,14887.22 4088.14,14887.22 4088.14,15309.24 2963.13,15309.24 2963.13,14887.22 2830.95,14887.22 2830.95,16758.2 3120.11,16758.2 3431.06,16416.56 3560,16416.56 3870.96,16758.2 "
       id="polygon108"
       style="fill:url(#linearGradient3852)" /><polygon
       class="fil16"
       points="3495.53,15928.21 3037.48,15928.21 3037.48,15469.33 3495.53,15469.33 "
       id="polygon110"
       style="fill:#7690c9" /><path
       class="fil18"
       d="m 3085.06,15516.91 h 362.89 v 76.35 h -362.89 z m 362.89,126.6 v 237.12 h -362.89 v -237.12 z"
       id="path112"
       inkscape:connector-curvature="0"
       style="fill:url(#id11)" /><path
       class="fil0"
       d="m 4010.82,13044.68 v 355.91 c 0,266.65 -218.16,484.82 -484.82,484.82 v 0 c -266.66,0 -484.83,-218.16 -484.83,-484.82 v -355.91 l -474.8,-331.6 v -298.47 c 230.58,97.88 576.38,160.16 962.97,160.16 386.58,0 732.38,-62.28 962.95,-160.16 v 298.47 z"
       id="path114"
       inkscape:connector-curvature="0"
       style="fill:#7e8588" /><path
       class="fil19"
       d="m 3977.02,13017.48 v 355.91 c 0,266.64 -218.17,484.82 -484.83,484.82 v 0 c -266.66,0 -484.82,-218.16 -484.82,-484.82 v -355.91 l -474.8,-331.61 v -298.46 c 230.57,97.88 576.38,160.16 962.96,160.16 386.59,0 732.38,-62.28 962.96,-160.16 v 298.46 z"
       id="path116"
       inkscape:connector-curvature="0"
       style="fill:url(#linearGradient3854)" /><path
       class="fil0"
       d="m 4282.66,12806.97 -284.01,195.6 c -57.16,-33 -95.61,-94.81 -95.61,-165.57 0,-105.49 85.51,-191 191.01,-191 95.25,0 174.19,69.78 188.61,160.97 z"
       id="path118"
       inkscape:connector-curvature="0"
       style="fill:#7e8588" /><path
       class="fil0"
       d="m 3007.37,13019.79 v -2.31 l -246.4,-172.08 c -0.11,-2.79 -0.2,-5.6 -0.2,-8.4 0,-105.49 85.52,-191 191.01,-191 105.49,0 191,85.51 191,191 0,86.16 -57.03,159 -135.41,182.79 z"
       id="path120"
       inkscape:connector-curvature="0"
       style="fill:#7e8588" /><path
       class="fil0"
       d="m 2705.75,13046.97 h 58.38 c 76.31,0 138.75,62.54 138.75,138.75 v 378.77 l 2.12,1.33 c 26.32,318.77 325.18,569.36 650.73,569.36 325.56,0 560.87,-250.59 587.2,-569.36 l 2.1,-1.32 v -378.78 c 0,-76.32 62.44,-138.75 138.76,-138.75 h 58.38 c 44.21,0 80.38,36.29 80.38,80.38 v 591.99 l 0.01,0.02 -382,463.08 v 1079.22 H 3010.71 v -1136.17 l -385.35,-417.86 v -580.28 c 0,-44.21 36.17,-80.38 80.39,-80.38 z"
       id="path122"
       inkscape:connector-curvature="0"
       style="fill:#7e8588" /><path
       class="fil20"
       d="m 2677.32,13020.83 h 58.38 c 76.32,0 138.75,62.48 138.75,138.76 v 429.01 l 2.12,1.33 c 26.32,318.77 293.41,569.36 618.96,569.36 325.56,0 592.64,-250.59 618.97,-569.36 l 2.1,-1.32 v -429.02 c 0,-76.32 62.44,-138.76 138.76,-138.76 h 58.38 c 44.21,0 80.38,36.21 80.38,80.39 v 589.49 l 0.01,0.02 -413.77,515.82 v 257.92 h -969.65 v -257.92 l -413.78,-515.82 v -589.51 c 0,-44.21 36.17,-80.39 80.39,-80.39 z m 1303.04,1785.29 v 375.14 h -484.83 -484.82 v -375.14 z"
       id="path124"
       inkscape:connector-curvature="0"
       style="fill:url(#id2)" /><polygon
       class="fil21"
       points="3653.42,14762.56 3735.31,14762.56 3735.31,14501.31 3653.42,14501.31 "
       id="polygon126"
       style="fill:url(#id16)" /><polygon
       class="fil22"
       points="3775.95,14762.56 3857.83,14762.56 3857.83,14501.31 3775.95,14501.31 "
       id="polygon128"
       style="fill:url(#id18)" /><polygon
       class="fil23"
       points="3898.47,14762.56 3980.35,14762.56 3980.35,14501.31 3898.47,14501.31 "
       id="polygon130"
       style="fill:url(#id15)" /><polygon
       class="fil24"
       points="3040.83,14762.56 3122.71,14762.56 3122.71,14501.31 3040.83,14501.31 "
       id="polygon132"
       style="fill:url(#linearGradient3856)" /><circle
       class="fil0"
       cx="3516.23"
       cy="13510.48"
       r="283.66"
       id="circle134"
       style="fill:#7e8588" /><circle
       class="fil25"
       cx="2926.7"
       cy="12806.85"
       r="191"
       id="circle136"
       style="fill:#fefefe" /><circle
       class="fil25"
       cx="3487.8101"
       cy="13475.31"
       r="283.66"
       id="circle138"
       style="fill:#fefefe" /><ellipse
       class="fil26"
       cx="3502.8601"
       cy="13500.44"
       rx="243.47"
       ry="243.46001"
       id="ellipse140"
       style="fill:#f4f4f4" /><polygon
       class="fil27"
       points="3530.9,14762.56 3612.8,14762.56 3612.8,14501.31 3530.9,14501.31 "
       id="polygon142"
       style="fill:url(#id13)" /><polygon
       class="fil28"
       points="3408.38,14762.56 3490.26,14762.56 3490.26,14501.31 3408.38,14501.31 "
       id="polygon144"
       style="fill:url(#id12)" /><polygon
       class="fil29"
       points="3285.86,14762.56 3367.74,14762.56 3367.74,14501.31 3285.86,14501.31 "
       id="polygon146"
       style="fill:url(#id3)" /><polygon
       class="fil30"
       points="3163.34,14762.56 3245.23,14762.56 3245.23,14501.31 3163.34,14501.31 "
       id="polygon148"
       style="fill:url(#id14)" /><circle
       class="fil26"
       cx="2926.7"
       cy="12818.58"
       r="171.42999"
       id="circle150"
       style="fill:#f4f4f4" /><circle
       class="fil31"
       cx="2905.4099"
       cy="12851.67"
       r="96.970001"
       id="circle152"
       style="fill:#000000" /><circle
       class="fil25"
       cx="4068.97"
       cy="12806.85"
       r="191"
       id="circle154"
       style="fill:#fefefe" /><circle
       class="fil26"
       cx="4068.97"
       cy="12818.58"
       r="171.42999"
       id="circle156"
       style="fill:#f4f4f4" /><circle
       class="fil31"
       cx="4047.6799"
       cy="12851.67"
       r="96.970001"
       id="circle158"
       style="fill:#000000" /></g><path
     class="fil32"
     d="m 5807.0658,1546.06 h -92.21 v 478.52 h -278.29 V 922.86 h 278.29 v 432.43 h 88.87 l 254.82,-432.43 h 269.9 l -293.37,499.2 325.22,602.52 h -303.44 z m 429.17,2015.9 h 100.59 v 468.98 h -192.78 l -30.19,-263.9 h -700.75 V 2665.32 h 278.28 v 896.64 h 266.57 v -896.64 h 278.28 z m 533.12,-709.05 v 262.32 h 402.34 v 184.41 h -402.34 v 278.21 h 484.49 v 189.19 h -762.79 V 2665.32 h 762.79 l -28.5,187.59 z m 1223.82,914.13 v -470.58 h -278.31 v 470.58 h -278.28 V 2665.32 h 278.28 v 426.06 h 278.31 v -426.06 h 278.29 v 1101.72 z m 1004.19,-899.82 v 899.82 h -278.28 v -899.82 h -325.25 v -201.9 h 942.18 l -28.49,201.9 z m 1046.1202,157.4 c 0,-114.47 -69.3002,-171.71 -207.8802,-171.71 h -92.21 v 357.71 h 102.27 c 63.71,0 112.59,-14.84 146.68,-44.51 34.0802,-29.68 51.1402,-76.85 51.1402,-141.49 z m 286.67,0 c 0,64.64 -11.16,120.55 -33.53,167.72 -22.35,47.15 -53.65,86.37 -93.88,117.64 -40.24,31.26 -88.85,54.31 -145.85,69.15 -57.0002,14.84 -119.5802,22.26 -187.7602,22.26 h -125.74 v 365.65 h -278.29 V 2665.32 h 367.14 c 158.71,0 281.3702,29.68 367.9902,89.03 86.61,59.36 129.92,149.44 129.92,270.27 z m 710.83,-1333.89 c 0,-57.23 -17.31,-96.98 -51.96,-119.24 -34.65,-22.25 -81.04,-33.39 -139.16,-33.39 h -110.64 v 294.12 h 98.92 c 26.82,0 52.53,-1.85 77.12,-5.57 24.57,-3.71 46.09,-10.59 64.54,-20.66 18.44,-10.07 33.23,-24.38 44.43,-42.93 11.17,-18.55 16.75,-42.65 16.75,-72.33 z m -43.57,-459.44 c 0,-43.47 -14.27,-74.73 -42.76,-93.81 -28.51,-19.08 -72.92,-28.62 -133.28,-28.62 h -82.15 v 252.78 h 90.53 c 59.24,0 101.99,-10.07 128.26,-30.2 26.25,-20.14 39.4,-53.53 39.4,-100.15 z m 330.25,470.57 c 0,63.59 -13.13,116.05 -39.4,157.38 -26.25,41.34 -61.46,74.46 -105.62,99.36 -44.15,24.91 -94.99,42.13 -152.55,51.67 -57.55,9.54 -118.19,14.31 -181.91,14.31 h -387.26 V 922.86 h 370.51 c 60.34,0 117.36,4.51 170.99,13.51 53.64,9.01 100.88,24.39 141.67,46.11 40.8,21.72 73.2,50.61 97.23,86.64 24.03,36.03 36.05,81.08 36.05,135.14 0,32.84 -5.86,62.53 -17.61,89.02 -11.74,26.49 -27.38,49.55 -46.93,69.16 -19.56,19.61 -41.09,35.5 -64.56,47.7 -23.46,12.18 -46.93,20.92 -70.4,26.23 v 6.35 c 27.93,5.3 56.72,13.77 86.33,25.44 29.63,11.65 56.73,27.56 81.32,47.69 24.59,20.14 44.42,45.3 59.52,75.52 15.09,30.2 22.62,67.03 22.62,110.49 z m 2494.58,-532.58 c -32.41,-24.37 -65.94,-43.72 -100.59,-58.03 -34.65,-14.31 -74.33,-21.45 -119.02,-21.45 -40.25,0 -76.84,7.14 -109.82,21.45 -32.97,14.31 -61.75,37.1 -86.34,68.36 -24.59,31.27 -43.58,71.01 -57,119.24 -13.4,48.22 -20.11,105.72 -20.11,172.49 0,65.71 6.43,122.41 19.27,170.11 12.87,47.68 31.03,86.9 54.5,117.64 23.46,30.73 51.41,53.25 83.83,67.56 32.4,14.31 68.72,21.47 108.95,21.47 57,0 105.07,-9.27 144.18,-27.82 39.12,-18.55 74.89,-40.02 107.3,-64.39 l 125.74,152.61 c -42.48,39.22 -95.85,72.86 -160.11,100.95 -64.27,28.09 -142.77,42.14 -235.54,42.14 -80.46,0 -153.68,-12.45 -219.63,-37.37 -65.93,-24.9 -122.37,-61.73 -169.31,-110.49 -46.95,-48.75 -83.54,-109.43 -109.82,-182.03 -26.26,-72.6 -39.38,-156.06 -39.38,-250.38 0,-92.21 13.68,-174.09 41.07,-245.62 27.37,-71.54 65.37,-131.95 113.99,-181.23 48.62,-49.3 106.18,-86.64 172.67,-112.09 66.51,-25.43 138.33,-38.16 215.44,-38.16 83.82,0 155.08,11.14 213.74,33.39 58.68,22.26 112.61,51.94 161.79,89.04 z m -6941.9102,665.8 h -269.57 l -48.3,189.5 h -233.35 l 284.32,-881.38 h 269.58 l 284.33,881.38 h -238.73 z m -234.69,-152.62 h 198.49 l -95.22,-372.64 h -6.71 z m 1048.78,-251.83 c 0,-91.57 -55.43,-137.35 -166.3,-137.35 h -73.78 v 286.16 h 81.83 c 50.96,0 90.07,-11.87 117.35,-35.62 27.26,-23.74 40.9,-61.46 40.9,-113.19 z m 229.35,0 c 0,51.73 -8.94,96.45 -26.83,134.19 -17.89,37.72 -42.91,69.1 -75.1,94.11 -32.19,25.01 -71.09,43.45 -116.69,55.32 -45.6,11.88 -95.66,17.81 -150.22,17.81 h -100.59 v 292.52 h -222.63 V 1143.2 h 293.72 c 126.96,0 225.1,23.74 294.4,71.23 69.28,47.48 103.94,119.54 103.94,216.2 z m 68.39,437.52 c 14.31,-15.26 27.28,-33.07 38.9,-53.42 11.62,-20.35 22.13,-47.27 31.52,-80.77 9.38,-33.48 18.11,-75.45 26.14,-125.9 8.06,-50.46 15.65,-112.99 22.81,-187.6 l 26.82,-277.26 h 519.03 v 724.95 h 69.74 v 367.55 h -144.84 l -24.13,-211.12 h -449.3 l -24.16,211.12 h -144.83 v -367.55 z m 332.61,-576.14 -9.39,110.64 c -6.25,72.92 -13.4,135.03 -21.45,186.33 -8.05,51.29 -17.88,94.75 -29.51,130.37 -11.62,35.61 -25.48,65.07 -41.58,88.39 -16.09,23.31 -34.87,43.44 -56.32,60.41 h 287.01 v -576.14 z m 969.67,543.07 h -269.57 l -48.3,189.5 h -233.35 l 284.33,-881.38 h 269.58 l 284.32,881.38 h -238.72 z m -234.69,-152.62 h 198.49 l -95.22,-372.64 h -6.71 z m 1017.9402,342.12 v -376.46 h -222.6302 v 376.46 h -222.64 V 1143.2 h 222.64 v 340.85 h 222.6302 V 1143.2 h 222.64 v 881.38 z m 1832.04,-189.5 h -269.57 l -48.3,189.5 h -233.36 l 284.32,-881.38 h 269.59 l 284.33,881.38 h -238.72 z m -234.69,-152.62 h 198.47 l -95.21,-372.64 h -6.72 z m 486.83,228.93 c 22.35,-15.26 42.03,-32.01 59.01,-50.23 16.98,-18.24 31.74,-44.32 44.26,-78.22 12.52,-33.93 23.91,-79.5 34.2,-136.72 10.28,-57.24 19.89,-132.49 28.83,-225.76 l 26.83,-277.26 h 560.6 v 881.38 h -222.63 v -721.13 h -143.51 l -12.07,139.91 c -8.94,105.13 -20.11,191.83 -33.53,260.08 -13.4,68.26 -31.28,124.65 -53.64,169.16 -22.36,44.51 -49.84,79.91 -82.48,106.2 -32.63,26.28 -72.2,50.02 -118.7,71.21 z m 2167.33,-618.11 v 209.85 h 321.89 v 147.53 h -321.89 v 222.57 h 387.61 v 151.35 h -610.25 V 1143.2 h 610.25 l -22.8,150.08 z m 1009.9,137.35 c 0,-91.57 -55.44,-137.35 -166.31,-137.35 h -73.76 v 286.16 h 81.82 c 50.97,0 90.07,-11.87 117.35,-35.62 27.27,-23.74 40.9,-61.46 40.9,-113.19 z m 229.35,0 c 0,51.73 -8.94,96.45 -26.82,134.19 -17.89,37.72 -42.93,69.1 -75.11,94.11 -32.19,25.01 -71.09,43.45 -116.68,55.32 -45.61,11.88 -95.68,17.81 -150.22,17.81 h -100.59 v 292.52 h -222.63 V 1143.2 h 293.72 c 126.96,0 225.1,23.74 294.4,71.23 69.28,47.48 103.93,119.54 103.93,216.2 z m 568.66,326.86 c 0,-45.78 -13.86,-77.58 -41.59,-95.38 -27.71,-17.81 -64.81,-26.71 -111.3,-26.71 h -88.52 v 235.28 h 79.12 c 21.47,0 42.03,-1.48 61.7,-4.45 19.67,-2.96 36.89,-8.47 51.63,-16.53 14.76,-8.06 26.59,-19.5 35.56,-34.34 8.94,-14.83 13.4,-34.12 13.4,-57.87 z m -34.87,-367.55 c 0,-34.76 -11.41,-59.77 -34.21,-75.03 -22.78,-15.28 -58.34,-22.9 -106.61,-22.9 h -65.72 v 202.22 h 72.42 c 47.39,0 81.59,-8.05 102.6,-24.17 21.01,-16.11 31.52,-42.81 31.52,-80.12 z m 264.2,376.46 c 0,50.88 -10.5,92.84 -31.51,125.91 -21.01,33.07 -49.17,59.56 -84.49,79.49 -35.33,19.92 -76.01,33.7 -122.05,41.34 -46.05,7.62 -94.56,11.44 -145.52,11.44 h -309.8 V 1143.2 h 296.38 c 48.3,0 93.88,3.61 136.81,10.82 42.92,7.2 80.69,19.49 113.32,36.88 32.65,17.38 58.58,40.48 77.8,69.31 19.22,28.83 28.83,64.87 28.83,108.1 0,26.29 -4.7,50.04 -14.08,71.23 -9.39,21.19 -21.91,39.64 -37.56,55.32 -15.65,15.68 -32.85,28.41 -51.63,38.16 -18.77,9.75 -37.55,16.75 -56.33,20.99 v 5.09 c 22.35,4.24 45.38,11.02 69.06,20.34 23.71,9.33 45.39,22.04 65.06,38.16 19.68,16.11 35.54,36.24 47.61,60.41 12.07,24.16 18.1,53.63 18.1,88.39 z m 105.96,258.18 V 1143.2 h 203.85 v 295.07 c 0,91.56 -3.57,167.03 -10.73,226.38 -7.15,59.35 -14.29,109.81 -21.45,151.35 h 5.37 l 245.42,-672.8 h 245.45 v 881.38 h -203.87 v -288.7 c 0,-86.49 3.35,-161.1 10.06,-223.85 6.72,-62.74 14.09,-115.73 22.13,-158.98 h -5.37 l -241.39,671.53 z m 1406.89,-684.24 c -25.94,-19.5 -52.75,-34.97 -80.46,-46.43 -27.73,-11.44 -59.47,-17.16 -95.23,-17.16 -32.19,0 -61.47,5.72 -87.85,17.16 -26.37,11.46 -49.41,29.68 -69.07,54.69 -19.67,25.01 -34.88,56.81 -45.6,95.39 -10.72,38.58 -16.09,84.57 -16.09,137.99 0,52.57 5.13,97.93 15.43,136.09 10.28,38.15 24.8,69.52 43.58,94.11 18.76,24.6 41.13,42.61 67.06,54.05 25.92,11.46 54.98,17.18 87.18,17.18 45.6,0 84.04,-7.43 115.33,-22.25 31.29,-14.84 59.91,-32.02 85.85,-51.52 l 100.57,122.1 c -33.96,31.36 -76.67,58.29 -128.08,80.75 -51.4,22.48 -114.22,33.72 -188.44,33.72 -64.38,0 -122.93,-9.98 -175.68,-29.9 -52.76,-19.92 -97.92,-49.39 -135.48,-88.39 -37.54,-39 -66.82,-87.55 -87.84,-145.63 -21,-58.08 -31.52,-124.84 -31.52,-200.31 0,-73.76 10.96,-139.26 32.86,-196.49 21.91,-57.24 52.32,-105.57 91.22,-144.99 38.87,-39.43 84.93,-69.32 138.13,-89.66 53.2,-20.35 110.65,-30.54 172.33,-30.54 67.06,0 124.07,8.91 171.01,26.72 46.94,17.81 90.08,41.55 129.43,71.21 z"
     id="path162"
     inkscape:connector-curvature="0"
     style="fill:#ffffff;fill-rule:nonzero" /></svg>