<svg width="26" height="25" viewBox="0 0 26 25" fill="none" xmlns="http://www.w3.org/2000/svg">
<path d="M25.1232 15.5239C23.4427 22.2203 16.6161 26.2957 9.87514 24.6258C3.13696 22.9562 -0.965009 16.1735 0.716196 9.47748C2.39583 2.78028 9.22248 -1.29546 15.9615 0.374057C22.702 2.04357 26.8036 8.8271 25.1232 15.5239Z" fill="#F7931A"/>
<path d="M18.4661 10.7192C18.7165 9.05593 17.4418 8.1618 15.6989 7.56532L16.2643 5.31221L14.8839 4.97042L14.3334 7.16415C13.9705 7.07431 13.5978 6.98954 13.2274 6.90556L13.7818 4.69738L12.4022 4.35558L11.8364 6.6079C11.536 6.53994 11.2411 6.47275 10.9549 6.40205L10.9565 6.39502L9.05273 5.92275L8.68551 7.38758C8.68551 7.38758 9.70972 7.62078 9.6881 7.63524C10.2472 7.77391 10.3482 8.14148 10.3313 8.43289L9.68731 10.9997C9.72584 11.0094 9.77577 11.0235 9.83082 11.0454C9.78482 11.034 9.73567 11.0215 9.68495 11.0094L8.78223 14.6051C8.71381 14.7738 8.54043 15.027 8.14961 14.9309C8.16337 14.9508 7.14624 14.682 7.14624 14.682L6.46094 16.2519L8.25734 16.6969C8.59154 16.7801 8.91905 16.8672 9.24145 16.9492L8.67017 19.2281L10.049 19.5699L10.6148 17.3152C10.9915 17.4168 11.3571 17.5105 11.7149 17.5988L11.1511 19.8429L12.5315 20.1847L13.1028 17.9101C15.4567 18.3527 17.2268 18.1742 17.9718 16.059C18.5722 14.3559 17.942 13.3735 16.7035 12.7328C17.6054 12.5262 18.2848 11.9368 18.4661 10.7192ZM15.312 15.1133C14.8854 16.8164 11.9992 15.8957 11.0634 15.6648L11.8214 12.6457C12.7572 12.8778 15.7579 13.3371 15.312 15.1133ZM15.739 10.6946C15.3498 12.2438 12.9475 11.4567 12.1682 11.2637L12.8555 8.52546C13.6348 8.71843 16.1444 9.07858 15.739 10.6946Z" fill="white"/>
</svg>
