<svg width="12" height="13" viewBox="0 0 12 13" fill="none" xmlns="http://www.w3.org/2000/svg">
<path d="M7.69817 2.26917H1.53527C0.956988 2.26917 0.487305 2.72883 0.487305 3.29479V11.9488C0.487305 12.5147 0.956988 12.9744 1.53527 12.9744H7.69817C8.27645 12.9744 8.74613 12.5147 8.74613 11.9488V3.29479C8.74342 2.72883 8.27373 2.26917 7.69817 2.26917ZM8.01039 11.9461C8.01039 12.1162 7.86921 12.2543 7.69545 12.2543H1.53255C1.3588 12.2543 1.21762 12.1162 1.21762 11.9461V3.29479C1.21762 3.12473 1.3588 2.98657 1.53255 2.98657H7.69545C7.86921 2.98657 8.01039 3.12473 8.01039 3.29479V11.9461Z" fill="#BDBDBD"/>
<path d="M10.0546 0H3.89171C3.31343 0 2.84375 0.459669 2.84375 1.02562C2.84375 1.2249 3.00665 1.38432 3.21027 1.38432C3.41389 1.38432 3.57678 1.2249 3.57678 1.02562C3.57678 0.855569 3.71796 0.717403 3.89171 0.717403H10.0546C10.2284 0.717403 10.3695 0.855569 10.3695 1.02562V9.67962C10.3695 9.84967 10.2284 9.98784 10.0546 9.98784C9.85099 9.98784 9.6881 10.1473 9.6881 10.3465C9.6881 10.5458 9.85099 10.7052 10.0546 10.7052C10.6329 10.7052 11.1026 10.2456 11.1026 9.67962V1.02562C11.1026 0.459669 10.6329 0 10.0546 0Z" fill="#BDBDBD"/>
</svg>
