<?xml version="1.0" encoding="UTF-8"?>
<!-- Generator: Adobe Illustrator 16.0.0, SVG Export Plug-In . SVG Version: 6.00 Build 0)  -->
<!DOCTYPE svg PUBLIC "-//W3C//DTD SVG 1.1//EN" "http://www.w3.org/Graphics/SVG/1.1/DTD/svg11.dtd">
<svg version="1.1" xmlns="http://www.w3.org/2000/svg" xmlns:xlink="http://www.w3.org/1999/xlink" x="0px" y="0px" width="450px" height="167.333px" viewBox="0 0 450 167.333" enable-background="new 0 0 450 167.333" xml:space="preserve">
<g id="Border" display="none">
</g>
<g id="PayPal">
	<g>
		<g>
			<path fill-rule="evenodd" clip-rule="evenodd" fill="#2A2B2A" d="M55.271,30.949c9.625,0,19.289,0.156,28.863,0.853     c13.016,0.946,20.941,11.428,19.498,25.408c-2.266,21.956-18.583,30.249-35.525,31.409c-5.391,0.369-10.834,0.242-16.238,0.003     c-4.516-0.199-5.995,2.469-6.933,6.13c-1.587,6.198-3.496,12.323-4.827,18.573c-0.598,2.811-1.9,3.448-4.4,3.382     c-4.159-0.11-8.326-0.142-12.482,0.005c-3.393,0.119-4.219-1.226-3.478-4.434c2.917-12.635,5.644-25.313,8.513-37.96     c2.857-12.596,5.842-25.164,8.68-37.765c0.79-3.51,2.572-5.609,6.347-5.605C47.283,30.952,51.277,30.949,55.271,30.949     C55.271,31.187,55.271,30.71,55.271,30.949z M60.313,72.853C60.354,73.054,60.27,72.652,60.313,72.853     c4.119-0.433,8.177-0.869,11.963-2.256c4.832-1.77,8.236-5.177,8.68-10.712c0.402-5.01-0.976-9.668-6.014-11.11     c-5.1-1.46-10.613-1.603-15.969-1.922c-0.953-0.058-2.623,1.675-2.938,2.854c-1.638,6.124-3.039,12.317-4.323,18.527     c-0.644,3.116,0.938,4.687,4.128,4.624C57.33,72.829,58.821,72.853,60.313,72.853z"/>
			<path fill-rule="evenodd" clip-rule="evenodd" fill="#343435" d="M252.269,116.672c-1.332-0.003-2.666-0.003-3.998-0.003     c-6.275,0-6.639-0.368-5.23-6.367c5.59-23.805,11.209-47.603,16.865-71.392c1.771-7.447,2.854-8.086,10.15-7.867     c10.631,0.317,21.281,0.902,31.895,0.53c19.82-0.696,27.928,14.768,23.498,31.793c-4.18,16.071-17.998,24.03-33.906,25.176     c-5.24,0.378-10.545,0.351-15.791,0.039c-4.127-0.245-6.557,1.072-7.564,5.181c-1.287,5.234-2.881,10.393-4.199,15.62     c-1.836,7.278-1.779,7.293-9.219,7.293C253.935,116.675,253.103,116.675,252.269,116.672z M274.368,67.238     c-0.459,3.976,1.23,6.131,5.045,5.74c5.789-0.594,11.779-0.966,17.213-2.815c5.596-1.905,8.014-7.517,7.391-13.207     c-0.547-4.976-4.01-8.761-10.08-9.887c-3.699-0.686-7.625-0.616-11.385-0.248c-1.352,0.133-3.211,1.918-3.65,3.321     C277.138,55.761,275.839,61.527,274.368,67.238z"/>
			<path fill-rule="evenodd" clip-rule="evenodd" fill="#2A2B2A" d="M170.978,145.676c2.868-4.915,5.413-8.06,7.954-12.339     c5.916-9.917,7.198-18.105,4.887-28.49c-3.311-14.882-5.971-29.911-8.72-44.912c-1.405-7.663-0.097-9.007,7.823-9.156     c1.331-0.024,2.662-0.044,3.994-0.046c6.783-0.014,7.949,1.026,8.997,7.617c1.628,10.233,3.306,20.459,5.036,30.676     c0.168,0.994,0.857,1.901,1.833,3.97c3.151-5.15,5.72-9.419,8.356-13.646c5.035-8.071,10.187-16.07,15.124-24.198     c1.91-3.142,4.326-4.672,8.053-4.468c3.818,0.21,7.66-0.025,11.482,0.125c2.795,0.11,4.047,1.269,2.289,4.144     c-17.41,28.457-34.845,56.898-52.112,85.441c-2.384,3.941-5.07,5.313-9.832,5.377     C181.265,145.837,176.955,145.676,170.978,145.676z"/>
			<path fill-rule="evenodd" clip-rule="evenodd" fill="#2A2B2A" d="M138.938,116.675c0-2.192,0-3.962,0-6.254     c-3.133,1.608-5.92,2.855-8.523,4.411c-8.055,4.812-16.559,5.589-24.943,1.713c-3.044-1.407-6.261-4.617-7.338-7.721     c-4.633-13.335,3.352-26.498,17.711-29.011c8.256-1.444,16.757-1.607,25.164-2.002c3.264-0.152,5.559-0.814,5.892-4.404     c0.321-3.454,0.183-7.399-4.12-7.654c-6.997-0.415-14.059,0.022-21.078,0.376c-2.4,0.121-4.74,1.376-7.143,1.51     c-1.138,0.063-3.251-1.144-3.395-2.025c-1.221-7.458,1.703-12.439,9.03-13.116c9.962-0.921,20.257-1.892,30.015-0.35     c10.531,1.664,19.404,8.309,15.568,25.23c-2.641,11.648-5.099,23.34-7.981,34.927c-0.423,1.699-2.628,3.983-4.224,4.171     C148.844,117.032,144.008,116.675,138.938,116.675z M127.18,105.796c11.5,0.711,15.437-6.622,15.766-15.366     c0.045-1.209-2.082-3.61-3.117-3.563c-5.227,0.238-10.561,0.583-15.601,1.883c-6.229,1.605-8.579,5.913-7.271,11.999     C118.141,106.249,122.698,105.733,127.18,105.796z"/>
			<path fill-rule="evenodd" clip-rule="evenodd" fill="#343435" d="M362.118,116.664c-0.139-2.2-0.25-3.972-0.408-6.485     c-3.688,1.91-6.982,3.602-10.264,5.321c-6.895,3.613-14.125,4.298-21.543,2.152c-8.205-2.373-10.904-9.031-10.414-16.384     c1.113-16.751,13.105-21.264,25.104-22.533c6.42-0.68,12.926-1.01,19.373-0.813c4.061,0.124,5.881-2.158,5.688-5.063     c-0.166-2.475-2.109-6.456-3.939-6.883c-5.037-1.175-10.457-1.273-15.672-0.952c-4.211,0.259-8.402,1.551-12.492,2.757     c-2.777,0.819-3.48-0.004-3.654-2.658c-0.551-8.354,1.311-10.865,9.537-12.575c10.479-2.177,20.957-2.805,31.387,0.123     c9.131,2.563,16.566,10.808,13.4,22.564c-3.148,11.692-4.957,23.747-7.279,35.658c-0.797,4.088-2.498,6.461-7.279,5.863     C369.923,116.29,366.081,116.664,362.118,116.664z M349.952,105.892c11.043-0.437,15.713-5,16.186-14.95     c0.156-3.318-1.018-4.598-4.273-4.287c-4.264,0.408-8.664,0.173-12.781,1.152c-6.063,1.442-11.504,5.916-9.332,12.823     C341.595,106.494,346.081,105.833,349.952,105.892z"/>
			<path fill-rule="evenodd" clip-rule="evenodd" fill="#343435" d="M392.341,116.668c1.273-7.143,2.215-13.72,3.641-20.189     c4.213-19.11,8.611-38.181,12.947-57.265c1.693-7.458,1.705-7.464,9.473-7.448c2.83,0.006,5.666-0.056,8.484,0.131     c2.781,0.184,4.162,1.498,3.418,4.594c-3.551,14.778-6.977,29.586-10.506,44.369c-2.572,10.771-5.396,21.487-7.752,32.306     c-0.602,2.769-1.646,3.59-4.227,3.533C403.032,116.592,398.241,116.668,392.341,116.668z"/>
		</g>
	</g>
</g>
</svg>