<svg width="17" height="32" viewBox="0 0 17 32" fill="none" xmlns="http://www.w3.org/2000/svg">
<path d="M4.46685 14.694L3.61944 14.1655C3.61041 14.1599 3.60028 14.1576 3.59091 14.1529C3.58009 14.1473 3.56938 14.1429 3.55804 14.1383C3.51627 14.1207 3.47194 14.1111 3.42716 14.1098L3.42449 14.1092L3.42183 14.1098C3.37699 14.1111 3.33272 14.1208 3.29089 14.1383C3.27955 14.1428 3.2689 14.1472 3.25808 14.1529C3.2487 14.1576 3.23858 14.1599 3.22955 14.1655C3.20068 14.1837 3.17406 14.2057 3.15039 14.2312L3.14854 14.2329C3.11788 14.2674 3.09294 14.3074 3.07483 14.3511C3.06985 14.3623 3.0658 14.3732 3.06181 14.3849C3.04479 14.4312 3.03559 14.4805 3.03467 14.5304V18.3815C3.03467 18.6141 3.20918 18.8026 3.42449 18.8026C3.6398 18.8026 3.81432 18.6141 3.81432 18.3815V15.2595L4.07696 15.4236C4.45597 15.6984 4.6968 16.1463 4.72984 16.6381C4.73828 16.7155 4.72069 16.7936 4.68031 16.8582C4.66133 16.8662 4.64044 16.8672 4.62094 16.861C4.40881 16.8215 4.20716 16.9752 4.17059 17.2044C4.13402 17.4336 4.2763 17.6514 4.48843 17.6909C4.54259 17.7012 4.5975 17.7064 4.65253 17.7066C4.84614 17.7088 5.03414 17.6365 5.18279 17.5026C5.40499 17.281 5.52465 16.9644 5.50943 16.6381C5.47373 15.8459 5.08518 15.1215 4.46685 14.694Z" fill="white"/>
<path d="M9.98504 22.8942C10.0884 22.8943 10.1876 22.85 10.2608 22.771C10.3339 22.6919 10.3749 22.5848 10.3749 22.4731V19.352L11.5165 20.0639C11.703 20.1802 11.9415 20.1112 12.0491 19.9097C12.1567 19.7082 12.0928 19.4506 11.9063 19.3343L10.1799 18.2576C10.0593 18.1824 9.91069 18.1824 9.7901 18.2576C9.66951 18.3328 9.59522 18.4719 9.59522 18.6224V22.4731C9.59516 22.5848 9.63618 22.6919 9.70932 22.771C9.78246 22.85 9.88164 22.8944 9.98504 22.8942Z" fill="white"/>
<path d="M6.53186 20.7409C6.63526 20.7409 6.73444 20.6966 6.80758 20.6176C6.88072 20.5386 6.92174 20.4314 6.92168 20.3197V17.2105C7.62392 17.7928 8.06038 18.6733 8.11969 19.6275C8.11969 19.8344 8.08237 20.3225 7.7375 20.3863C7.53805 20.4233 7.39802 20.619 7.41503 20.8368C7.4321 21.0547 7.6006 21.2221 7.80295 21.2224C7.82516 21.2223 7.84733 21.2203 7.8692 21.2162C8.50454 21.099 8.89934 20.4903 8.89934 19.6275C8.83934 18.2993 8.18762 17.0846 7.15048 16.3682L6.7268 16.1038C6.60616 16.0285 6.45756 16.0286 6.33697 16.1038C6.21639 16.1791 6.14209 16.3181 6.14209 16.4686V20.3197C6.14203 20.4314 6.18306 20.5385 6.2562 20.6175C6.32928 20.6966 6.42846 20.7409 6.53186 20.7409Z" fill="white"/>
<path d="M11.5613 20.8305L11.216 20.6154C11.0295 20.4993 10.7913 20.5683 10.6836 20.7697C10.576 20.9712 10.6398 21.2287 10.8262 21.345L11.1715 21.5601C11.2921 21.6354 11.4408 21.6355 11.5615 21.5602C11.6822 21.485 11.7565 21.3459 11.7564 21.1953C11.7564 21.0448 11.682 20.9057 11.5613 20.8305Z" fill="white"/>
<path d="M16.9959 6.765C16.995 6.75219 16.9933 6.74012 16.9913 6.72724C16.9845 6.67842 16.9699 6.63123 16.948 6.5879L16.9479 6.58747L16.9478 6.5874C16.9239 6.5449 16.8932 6.50739 16.8572 6.47644C16.8484 6.46863 16.8399 6.46138 16.8306 6.45444C16.8218 6.44775 16.8146 6.43912 16.8052 6.43325L6.56936 0.0500311C6.55495 0.0436548 6.54019 0.0382787 6.52515 0.0339654C6.50015 0.0214629 6.47394 0.011961 6.44703 0.00552216C6.42354 0.00133382 6.39976 -0.000416528 6.37598 0.000208598C6.35075 -0.000666578 6.32546 0.0012088 6.30058 0.00589724C6.27448 0.0122735 6.24908 0.0215879 6.22478 0.0336528C6.20927 0.0381537 6.194 0.0437173 6.17918 0.0504062L4.48725 1.10737L4.48633 1.10781C4.48263 1.11006 4.47996 1.11368 4.47638 1.11606C4.47337 1.11812 4.46989 1.11887 4.46689 1.121L0.1755 4.17098C0.164853 4.17986 0.154669 4.1893 0.144948 4.1993C0.131697 4.21005 0.119141 4.22174 0.107279 4.23425C0.0649806 4.28894 0.0328084 4.35202 0.0126141 4.41991C0.00839004 4.44129 0.00572874 4.46298 0.00462933 4.48473C0.00352992 4.49749 1.46762e-07 4.50961 1.46762e-07 4.52255V22.52C-5.77167e-05 22.6704 0.0742966 22.8095 0.194884 22.8848L14.7186 31.9437L14.7205 31.9446C14.7384 31.9544 14.757 31.9627 14.7762 31.9694C14.8037 31.9856 14.8347 31.9939 14.8661 31.9934C14.8817 31.9966 14.8976 31.9989 14.9136 32H14.914C14.9822 32.0001 15.0494 31.9806 15.1085 31.9437L16.8052 30.8859C16.8179 30.8753 16.8299 30.8638 16.8413 30.8515C16.8632 30.8348 16.8833 30.8156 16.9014 30.7942C16.9171 30.7738 16.9309 30.7517 16.9425 30.7283C16.9554 30.7058 16.9661 30.6819 16.9747 30.6572C16.9828 30.6293 16.9881 30.6006 16.9906 30.5715C16.9948 30.5549 16.9979 30.5381 17 30.5211V6.79813C17.0001 6.78682 16.9968 6.77625 16.9959 6.765ZM4.29139 2.2536V6.38105C4.29162 6.40643 4.28948 6.43181 4.28491 6.45675C4.26072 6.44819 4.23746 6.43675 4.21564 6.42262L1.13216 4.49911L4.29139 2.2536ZM14.5237 30.8494L0.779595 22.2769V5.25214L3.82616 7.15221C3.90087 7.19884 3.98037 7.23585 4.06306 7.26248C4.08811 7.27054 4.11241 7.2716 4.13735 7.27729C4.18966 7.29098 4.24307 7.29936 4.29683 7.30242C4.30336 7.30261 4.31037 7.30561 4.3169 7.30561C4.35411 7.30355 4.39114 7.29848 4.42765 7.29048C4.45068 7.28686 4.47435 7.28704 4.49674 7.28104C4.5623 7.26416 4.62532 7.23728 4.68387 7.20109C4.94142 7.02424 5.08973 6.71012 5.07104 6.38105V2.20221L14.5237 8.09815L14.5237 30.8494ZM14.9137 7.36875L5.46034 1.47225L6.37447 0.901139L15.8302 6.79776L14.9137 7.36875ZM16.2204 30.278L15.3033 30.8497V8.09846L16.2204 7.52722V30.278Z" fill="white"/>
</svg>
